<?xml version="1.0" standalone="no"?>
<!DOCTYPE svg PUBLIC "-//W3C//DTD SVG 1.1//EN" "http://www.w3.org/Graphics/SVG/1.1/DTD/svg11.dtd">
<svg xmlns="http://www.w3.org/2000/svg" xmlns:xlink="http://www.w3.org/1999/xlink" version="1.1" viewBox="70 346 766 214">
  <defs>
    <style>
      .cls-1 {
        fill: none;
      }

      .cls-2 {
        clip-path: url(#clippath-1);
      }

      .cls-3 {
        fill: #57f5c3;
      }

      .cls-4 {
        clip-path: url(#clippath);
      }
    </style>
    <clipPath id="clippath">
      <rect class="cls-1" x="78.3" y="354.9" width="417.3" height="196.4"/>
    </clipPath>
    <clipPath id="clippath-1">
      <path class="cls-1" d="M86.9,354.9h400.2c2.3,0,4.4.9,6,2.5s2.5,3.8,2.5,6v179.3c0,2.3-.9,4.4-2.5,6-1.6,1.6-3.8,2.5-6,2.5H86.9c-2.3,0-4.4-.9-6-2.5-1.6-1.6-2.5-3.8-2.5-6v-179.3c0-2.3.9-4.4,2.5-6,1.6-1.6,3.8-2.5,6-2.5Z"/>
    </clipPath>
  </defs>
  <!-- Generator: Adobe Illustrator 28.7.1, SVG Export Plug-In . SVG Version: 1.2.0 Build 142)  -->
  <g>
    <g id="Camada_1">
      <g>
        <rect class="cls-1" x="486.8" y="354.9" width="146.6" height="196.4"/>
        <polygon class="cls-3" points="486.8 354.9 561.2 354.9 633.3 453 561.2 551.2 486.8 551.2 558.8 453 486.8 354.9"/>
        <path class="cls-3" d="M804.6,504.9c-12.8,0-23.2,10.4-23.2,23.2s10.4,23.2,23.2,23.2,23.2-10.4,23.2-23.2-10.4-23.2-23.2-23.2Z"/>
        <g class="cls-4">
          <g class="cls-2">
            <path class="cls-3" d="M487.1,565.8H86.9c-6.2,0-12-2.4-16.3-6.8-4.4-4.4-6.8-10.2-6.8-16.3v-179.3c0-6.2,2.4-12,6.8-16.3s10.2-6.8,16.3-6.8h400.2c6.2,0,12,2.4,16.3,6.8,4.4,4.4,6.8,10.2,6.8,16.3v179.3c0,6.2-2.4,12-6.8,16.3-4.4,4.4-10.2,6.8-16.3,6.8ZM92.9,536.7h388.2v-167.3H92.9v167.3Z"/>
          </g>
        </g>
        <path class="cls-3" d="M117.1,393.1h30.7c9.7,0,17,.8,22,2.3,5,1.5,9,4.6,12.1,9.2,3.1,4.6,4.6,12,4.6,22.3s-1.1,11.7-3.3,14.5c-2.2,2.7-6.4,4.8-12.8,6.3,7.1,1.6,11.9,4.3,14.5,8,2.5,3.7,3.8,9.4,3.8,17.1v11c0,8-.9,13.9-2.7,17.8-1.8,3.8-4.7,6.5-8.7,7.9-4,1.4-12.2,2.1-24.6,2.1h-35.6v-118.3ZM147.8,413.3v26.3c1.3,0,2.3,0,3.1,0,3,0,4.9-.7,5.8-2.2.8-1.5,1.2-5.7,1.2-12.8s-.3-6.3-1-7.8c-.7-1.5-1.6-2.4-2.7-2.8-1.1-.4-3.2-.6-6.4-.7ZM147.8,458.1v33.1c4.3-.1,7.1-.8,8.3-2,1.2-1.2,1.8-4.2,1.8-9v-11c0-5.1-.5-8.1-1.6-9.2-1.1-1.1-3.9-1.7-8.5-1.8Z"/>
        <path class="cls-3" d="M218.8,487.3v24.1h-22.3v-24.1h22.3Z"/>
        <path class="cls-3" d="M281.1,393.1l17.6,118.3h-31.5l-1.5-21.3h-11l-1.8,21.3h-31.9l15.6-118.3h44.5ZM264.8,469.2c-1.6-13.4-3.1-29.9-4.7-49.6-3.1,22.6-5.1,39.2-5.8,49.6h10.5Z"/>
        <path class="cls-3" d="M323.1,487.3v24.1h-22.3v-24.1h22.3Z"/>
        <path class="cls-3" d="M427.2,393.1v118.3h-26.9v-79.9l-10.7,79.9h-19.1l-11.3-78.1v78.1h-26.9v-118.3h39.8c1.2,7.1,2.4,15.5,3.7,25.1l4.2,30.1,7-55.3h40.1Z"/>
        <path class="cls-3" d="M458.6,487.3v24.1h-22.3v-24.1h22.3Z"/>
        <rect class="cls-1" x="582" y="354.9" width="146.7" height="196.4"/>
        <polygon class="cls-3" points="582 354.9 656.4 354.9 728.5 453 656.4 551.2 582 551.2 654 453 582 354.9"/>
        <polygon class="cls-3" points="677.2 354.9 751.6 354.9 823.7 453 751.6 551.2 677.2 551.2 749.2 453 677.2 354.9"/>
      </g>
    </g>
  </g>
</svg>